<?xml version="1.0" encoding="UTF-8"?>
<svg id="Calque_1" data-name="Calque 1" xmlns="http://www.w3.org/2000/svg" viewBox="0 0 376.76 148.54">
  <defs>
    <style>
      .cls-1 {
        fill: #da2a1c;
      }

      .cls-2 {
        fill: #010101;
      }
    </style>
  </defs>
  <g>
    <path class="cls-2" d="M52.65,144.75H16.81s23.72-112.11,23.72-112.11H0S6.15,3.84,6.15,3.84h116.99s-6.15,28.8-6.15,28.8h-40.53s-23.82,112.12-23.82,112.12Z"/>
    <path class="cls-2" d="M221.3,115.93l-6.15,28.81h-96.58S148.53,3.83,148.53,3.83h96.58s-6.25,28.8-6.25,28.8h-60.64s-5.95,28.13-5.95,28.13h-72.98s-5.56,26.37-5.56,26.37h72.98s-6.15,28.8-6.15,28.8h60.74Z"/>
    <path class="cls-2" d="M247.08,104.11h34.18c.65,5.07,3.39,9.22,8.2,12.45,4.82,3.22,10.55,4.83,17.19,4.83,7.03,0,12.74-1.47,17.14-4.4s6.59-6.74,6.59-11.43c0-3.52-1.4-6.41-4.2-8.69-2.8-2.28-7.62-4.46-14.45-6.54l-15.33-4.59c-10.87-3.25-19.24-8.27-25.1-15.04-5.86-6.77-8.79-14.91-8.79-24.41,0-13.35,5.53-24.4,16.6-33.16C290.17,4.38,304.13,0,320.99,0s29.93,4.15,40.19,12.45c10.25,8.3,15.45,19.09,15.58,32.37h-33.11c-.46-5.14-2.91-9.39-7.37-12.74-4.46-3.35-9.98-5.03-16.55-5.03-5.99,0-11.02,1.43-15.09,4.3-4.07,2.87-6.1,6.45-6.1,10.74,0,3.58,1.33,6.66,4,9.23,2.67,2.57,6.97,4.74,12.89,6.49l15.43,4.49c12.17,3.58,21.06,8.43,26.66,14.55,5.6,6.12,8.4,14.06,8.4,23.83,0,14.45-5.65,26.04-16.94,34.77-11.3,8.73-26.22,13.09-44.77,13.09-16.93,0-30.6-3.98-41.02-11.96-10.42-7.97-15.79-18.8-16.12-32.47Z"/>
  </g>
  <polyline class="cls-2" points="214.27 60.52 171.3 60.52 165.73 86.88 208.71 86.88"/>
  <polyline class="cls-1" points="136.43 60.76 93.45 60.76 87.88 87.12 130.86 87.12"/>
</svg>