<?xml version="1.0" encoding="UTF-8"?>
<svg id="Calque_1" data-name="Calque 1" xmlns="http://www.w3.org/2000/svg" viewBox="0 0 456.23 474.89">
  <defs>
    <style>
      .cls-1 {
        fill: #fff;
      }

      .cls-2 {
        fill: #da2a1c;
      }
    </style>
  </defs>
  <path class="cls-1" d="M86.36,231.19H27.56L66.49,47.26H0L10.09,0h191.94l-10.09,47.26h-66.49l-39.09,183.93h0Z"/>
  <path class="cls-1" d="M250.08,332.62l-10.09,47.26H81.53l49.19-231.19h158.46l-10.25,47.26h-99.5l-9.77,46.14h-99.73l-9.13,43.26h99.73l-10.09,47.26h99.66-.02Z"/>
  <path class="cls-1" d="M243.46,401.99h56.08c1.07,8.33,5.55,15.14,13.46,20.43,7.9,5.29,17.3,7.93,28.2,7.93,11.54,0,20.91-2.4,28.12-7.21s10.81-11.06,10.81-18.75c0-5.77-2.3-10.52-6.89-14.26-4.59-3.74-12.5-7.31-23.71-10.73l-25.15-7.53c-17.84-5.34-31.56-13.56-41.18-24.67-9.61-11.11-14.42-24.46-14.42-40.05,0-21.89,9.08-40.03,27.24-54.39s41.07-21.55,68.73-21.55,49.11,6.81,65.93,20.43,25.34,31.32,25.55,53.11h-54.31c-.75-8.44-4.78-15.41-12.1-20.91s-16.37-8.25-27.16-8.25c-9.83,0-18.08,2.35-24.75,7.05-6.68,4.7-10.01,10.57-10.01,17.62,0,5.88,2.19,10.92,6.57,15.14s11.43,7.77,21.15,10.65l25.31,7.37c19.97,5.88,34.55,13.83,43.74,23.87s13.78,23.07,13.78,39.09c0,23.71-9.27,42.73-27.8,57.04s-43.02,21.47-73.46,21.47c-27.77,0-50.2-6.54-67.29-19.63-17.09-13.08-25.9-30.84-26.44-53.27h0Z"/>
  <polyline class="cls-2" points="110.86 242.09 25.71 242.09 16.57 285.4 101.72 285.4"/>
  <polyline class="cls-1" points="240.05 242.18 169.61 242.18 160.49 285.4 230.93 285.4"/>
</svg>